<?xml version="1.0" encoding="utf-8"?>
<!-- Generator: Adobe Illustrator 24.1.2, SVG Export Plug-In . SVG Version: 6.00 Build 0)  -->
<svg version="1.1" id="Layer_1" xmlns="http://www.w3.org/2000/svg" xmlns:xlink="http://www.w3.org/1999/xlink" x="0px" y="0px"
	 viewBox="0 0 181.13 60.09" style="enable-background:new 0 0 181.13 60.09;" xml:space="preserve">
<style type="text/css">
	.st0{fill:#005DAB;}
	.st1{fill:#3BB3A6;}
	.st2{fill:#F57410;}
	.st3{fill:#3D3D3F;}
</style>
<g id="Group_8" transform="translate(-3378.622 -1326.608)">
	<g id="Group_6" transform="translate(3499.253 1326.608)">
		<path id="Path_439" class="st0" d="M19.78,12.03v7.55h-7.55c-2.94-0.01-5.32-2.39-5.33-5.33V6.7h7.55
			C17.38,6.71,19.76,9.09,19.78,12.03 M14.45,0.05H0.26v14.2c0.01,6.61,5.37,11.97,11.98,11.98h14.2v-14.2
			C26.42,5.42,21.07,0.06,14.45,0.05"/>
		<path id="Path_440" class="st1" d="M8.47,42.09c0.99-1,2.35-1.57,3.76-1.57h7.55v7.54c-0.01,2.94-2.39,5.32-5.33,5.33H6.9v-7.55
			C6.9,44.43,7.47,43.08,8.47,42.09 M3.77,37.39c-2.26,2.24-3.52,5.28-3.51,8.46v7.55v3.32v3.32h14.2
			c6.61-0.01,11.97-5.37,11.98-11.98v-14.2h-14.2C9.06,33.86,6.01,35.13,3.77,37.39"/>
		<path id="Path_441" class="st2" d="M42.29,51.83c-1-0.99-1.57-2.35-1.57-3.76v-7.55h7.54c2.94,0,5.32,2.39,5.33,5.33v7.55h-7.55
			C44.64,53.4,43.29,52.83,42.29,51.83 M37.59,56.53c2.24,2.26,5.28,3.52,8.46,3.52h7.55h3.32h3.32v-14.2
			c-0.01-6.61-5.37-11.97-11.98-11.98H37.4h-3.32v14.19C34.07,51.24,35.34,54.28,37.59,56.53"/>
		<path id="Path_442" class="st1" d="M48.27,19.57h-7.55v-7.55c0.01-2.94,2.39-5.32,5.33-5.33h7.54v7.55
			C53.58,17.18,51.21,19.56,48.27,19.57 M60.25,14.24V0.05h-3.32H46.05c-6.61,0.01-11.97,5.37-11.98,11.98v14.2h3.32h3.33h7.54
			C54.88,26.22,60.24,20.86,60.25,14.24"/>
	</g>
	<path id="Path_443" class="st3" d="M3462.42,1378.28h-6.52v-43.24h10.46v6.52h-3.94V1378.28z"/>
	<g id="Group_7" transform="translate(3378.622 1334.95)">
		<path id="Path_444" class="st3" d="M65.36,24.37h-9.53c-2.54,0-4.61-2.06-4.61-4.61v-8.59c0-2.54,2.06-4.61,4.61-4.61h9.53V24.37z
			 M71.88,24.37L71.88,24.37V0.05h-16.3v0.01c-5.94,0.14-10.73,4.92-10.87,10.86H44.7v9.44h0.02c0.32,5.81,5.05,10.4,10.86,10.53
			l0,0h9.78v1.28c0,2.54-2.06,4.61-4.61,4.61H44.7v6.52h11.37L61,43.28c5.82-0.14,10.55-4.72,10.86-10.53h0.02v-1.87l0,0V24.37z"/>
		<path id="Path_445" class="st3" d="M102.06,0.06V0.05h-9.02v6.52h8.43c2.54,0,4.61,2.06,4.61,4.61v25.6H93.05v6.52h19.55V10.92
			h-0.01C112.46,5.11,107.87,0.38,102.06,0.06"/>
		<path id="Path_446" class="st3" d="M24.55,6.57h15.25V0.05H23.96v0.02c-5.81,0.32-10.4,5.05-10.53,10.86h-0.01v15.34h19.86v5.97
			c0,2.55-2.06,4.61-4.61,4.61H11.38c-2.55,0-4.61-2.06-4.61-4.61V0.26H0.25v32.23h0.01c0.14,5.82,4.72,10.55,10.53,10.86v0.02
			h18.14v-0.02c5.99-0.02,10.84-4.87,10.86-10.86V19.75H19.94v-8.58C19.94,8.63,22,6.57,24.55,6.57"/>
	</g>
</g>
</svg>
