<?xml version="1.0" standalone="no"?>
<!DOCTYPE svg PUBLIC "-//W3C//DTD SVG 20010904//EN"
 "http://www.w3.org/TR/2001/REC-SVG-20010904/DTD/svg10.dtd">
<svg version="1.0" xmlns="http://www.w3.org/2000/svg"
 width="138.000000pt" height="165.000000pt" viewBox="0 0 138.000000 165.000000"
 preserveAspectRatio="xMidYMid meet">

<g transform="translate(0.000000,165.000000) scale(0.100000,-0.100000)"
fill="#000000" stroke="none">
<path d="M826 1529 c135 -57 262 -187 326 -335 27 -61 31 -84 35 -191 6 -129
-1 -176 -39 -273 -125 -314 -511 -474 -813 -336 -31 14 -62 26 -67 26 -6 0
-39 26 -76 57 -76 67 -68 40 11 -40 59 -59 201 -157 227 -157 9 0 20 -3 24 -7
14 -14 83 -33 161 -44 67 -10 95 -9 173 4 96 17 215 63 265 104 16 13 32 23
36 23 8 0 136 124 156 151 41 55 82 155 106 257 19 85 12 220 -16 317 -26 88
-86 205 -122 236 -10 9 -30 29 -44 45 -82 91 -285 195 -381 194 -29 -1 -25 -4
38 -31z"/>
<path d="M562 1130 c-53 -35 -70 -53 -82 -85 -11 -30 -8 -32 60 -39 25 -3 46
-5 48 -5 1 -1 2 -16 2 -34 0 -19 3 -37 8 -41 9 -10 9 -8 11 -146 1 -115 2
-120 22 -120 20 0 21 4 16 48 -3 26 -3 76 1 112 7 62 8 65 37 71 l30 7 -33 1
c-19 1 -31 5 -27 11 3 6 -3 10 -14 10 -18 0 -21 6 -21 50 l0 50 56 0 c56 0 56
0 50 26 -7 28 -28 49 -87 88 l-36 24 -41 -28z"/>
<path d="M355 966 c-30 -12 -30 -12 -6 -19 27 -7 65 9 56 24 -8 11 -13 11 -50
-5z"/>
<path d="M817 944 c-13 -13 -7 -24 14 -24 11 0 19 5 17 12 -5 14 -22 21 -31
12z"/>
<path d="M218 929 c-20 -8 -28 -18 -30 -42 -2 -26 -9 -33 -35 -41 -38 -10 -46
-37 -41 -126 l3 -55 78 -3 77 -3 1 73 c0 40 0 93 -1 117 l-2 44 42 -6 c23 -3
44 -7 46 -10 3 -2 2 -23 -2 -46 -5 -34 -9 -39 -21 -30 -19 17 -26 6 -33 -54
-9 -87 -10 -87 81 -87 l79 0 0 140 c0 77 -4 140 -8 140 -5 0 -30 -6 -56 -14
-47 -14 -116 -11 -116 5 0 11 -27 10 -62 -2z"/>
<path d="M880 903 c8 -3 18 -11 22 -17 5 -7 8 -4 8 7 0 11 -7 17 -22 16 -16 0
-18 -2 -8 -6z"/>
<path d="M783 829 c-31 -11 -43 -40 -43 -102 0 -54 0 -55 33 -58 17 -2 44 -3
60 -1 26 3 27 5 27 66 0 48 -4 67 -17 78 -28 24 -37 26 -60 17z"/>
<path d="M961 816 c-7 -8 -11 -27 -9 -43 2 -22 9 -29 31 -31 27 -3 28 -2 25
40 -3 46 -24 61 -47 34z"/>
<path d="M512 693 c2 -10 13 -19 26 -21 17 -3 22 2 22 17 0 16 -6 21 -26 21
-19 0 -25 -5 -22 -17z"/>
</g>
</svg>
